<?xml version="1.0" standalone="no"?><!-- Generator: Gravit.io --><svg xmlns="http://www.w3.org/2000/svg" xmlns:xlink="http://www.w3.org/1999/xlink" style="isolation:isolate" viewBox="0 0 300 500" width="300" height="500"><defs><clipPath id="_clipPath_kJBU1nCugiLW1yp7ePQsU3uitVeQGEPY"><rect width="300" height="500"/></clipPath></defs><g clip-path="url(#_clipPath_kJBU1nCugiLW1yp7ePQsU3uitVeQGEPY)"><rect x="0.053" y="-1.113" width="299.75" height="178.113" transform="matrix(1,0,0,1,-0.001,0)" fill="rgb(0,130,200)"/><path d="M 48.494 19.408 L 256.935 19.408 C 268.575 19.408 278.025 28.858 278.025 40.498 L 278.025 55.318 C 278.025 66.958 268.575 76.408 256.935 76.408 L 48.494 76.408 C 36.854 76.408 27.404 66.958 27.404 55.318 L 27.404 40.498 C 27.404 28.858 36.854 19.408 48.494 19.408 Z" style="stroke:none;fill:#0070AC;stroke-miterlimit:10;"/><g transform="matrix(1,0,0,1,105.825,34.29)"><text transform="matrix(1,0,0,1,0,21.377)" style="font-family:'Open Sans';font-weight:400;font-size:20px;font-style:normal;font-variant-ligatures:none;fill:#ffffff;stroke:none;">Add Note</text></g><path d="M 48.379 97.019 L 257 97.019 C 268.59 97.019 278 106.428 278 118.019 L 278 133.019 C 278 144.609 268.59 154.019 257 154.019 L 48.379 154.019 C 36.788 154.019 27.379 144.609 27.379 133.019 L 27.379 118.019 C 27.379 106.428 36.788 97.019 48.379 97.019 Z" style="stroke:none;fill:#0070AC;stroke-miterlimit:10;"/><g transform="matrix(1,0,0,1,65.214,111.901)"><text transform="matrix(1,0,0,1,0,21.377)" style="font-family:'Open Sans';font-weight:400;font-size:20px;font-style:normal;fill:#ffffff;stroke:none;">Search Your Notes</text></g><g transform="matrix(1,0,0,1,42.178,287)"><text transform="matrix(1,0,0,1,0,27.218)" style="font-family:'Archivo Black';font-weight:400;font-size:31px;font-style:normal;font-variant-ligatures:none;fill:#C8C8C8;stroke:none;">Your Search </text><text transform="matrix(1,0,0,1,0,60.946)" style="font-family:'Archivo Black';font-weight:400;font-size:31px;font-style:normal;font-variant-ligatures:none;fill:#C8C8C8;stroke:none;">Results Will </text><text transform="matrix(1,0,0,1,0,94.674)" style="font-family:'Archivo Black';font-weight:400;font-size:31px;font-style:normal;font-variant-ligatures:none;fill:#C8C8C8;stroke:none;">Appear Here</text></g><path d=" M 138.928 250 C 137.057 250 133.514 252.07 127.24 261.926 C 126.93 262.417 126.852 263.02 127.026 263.574 C 126.962 263.707 126.929 263.853 126.928 264 L 126.928 279 C 126.928 280.07 127.791 281 128.885 281 L 144.92 281 C 146.037 281 147.053 280.332 147.533 279.324 C 147.546 279.3 147.557 279.276 147.565 279.25 L 149.451 274.324 C 149.576 274.066 149.741 274 149.928 274 C 150.116 274 150.28 274.066 150.405 274.324 L 152.291 279.25 C 152.299 279.277 152.311 279.3 152.323 279.324 C 152.803 280.332 153.819 281 154.936 281 L 170.971 281 C 172.065 281 172.928 280.07 172.928 279 L 172.928 264 C 172.928 263.855 172.896 263.713 172.834 263.582 C 172.994 263.07 172.939 262.514 172.682 262.043 C 169.686 256.551 165.388 250 161.928 250 C 156.928 250 156.928 255.27 156.928 257 L 156.928 257.082 C 156.994 258.656 158.116 261 160.928 261 C 161.424 261 161.901 260.852 162.315 260.578 C 162.514 261.383 162.701 262.203 162.877 263 L 153.757 263 C 152.936 263 152.369 263.355 151.869 263.605 C 151.373 263.855 150.936 264 150.881 264 L 148.971 264 C 148.921 264 148.483 263.855 147.987 263.605 C 147.487 263.355 146.92 263 146.1 263 L 137.05 263 C 137.37 262.062 137.705 261.098 138.053 260.172 C 138.491 260.687 139.093 261 139.928 261 C 142.741 261 143.862 258.656 143.928 257.082 L 143.928 257 C 143.928 255.27 143.928 250 138.928 250 Z  M 138.928 252 C 141.928 252 141.928 255.082 141.928 257 C 141.928 257 141.846 259 139.928 259 C 138.928 259 138.928 255.582 138.928 254 C 137.932 254 134.928 263 134.928 263 L 128.928 263 C 128.928 263 135.928 252 138.928 252 Z  M 161.928 252 C 164.928 252 170.928 263 170.928 263 L 164.928 263 C 164.928 263 163.01 254 161.928 254 C 161.928 255.582 162.01 259 160.928 259 C 159.01 259 158.928 257 158.928 257 C 158.928 255.082 158.928 252 161.928 252 Z  M 128.928 265 L 146.1 265 C 146.155 265 146.588 265.145 147.088 265.395 C 147.588 265.645 148.155 266 148.971 266 L 150.881 266 C 151.701 266 152.268 265.645 152.768 265.395 C 153.264 265.145 153.701 265 153.756 265 L 170.928 265 L 170.928 279 L 154.936 279 C 154.608 279 154.299 278.809 154.131 278.465 L 152.244 273.535 C 151.84 272.613 150.934 272.013 149.928 272 C 148.922 272.013 148.016 272.613 147.612 273.535 L 145.725 278.465 C 145.557 278.809 145.248 279 144.92 279 L 128.928 279 L 128.928 265 Z  M 131.905 267.031 C 131.35 267.031 130.897 267.465 130.897 268 L 130.897 276.012 C 130.897 276.516 131.405 277.012 131.928 277.012 L 142.928 277.012 C 143.432 277.012 143.768 276.387 143.959 276.012 C 144.889 273.977 145.159 271.719 146.147 268.297 C 146.342 267.707 146.19 267.031 144.917 267.031 L 131.905 267.031 Z  M 154.901 267.031 C 153.627 267.031 153.479 267.707 153.674 268.297 C 154.662 271.719 154.924 273.977 155.854 276.012 C 156.049 276.387 156.385 277.012 156.893 277.012 L 167.893 277.012 C 168.413 277.012 168.924 276.516 168.924 276.012 L 168.924 268 C 168.924 267.465 168.467 267.031 167.912 267.031 L 154.901 267.031 Z  M 132.897 269.031 L 143.865 269.031 C 143.651 269.859 143.471 270.609 143.307 271.301 C 142.951 272.785 142.667 273.973 142.221 275.011 L 132.897 275.011 L 132.897 269.031 Z  M 155.951 269.031 L 166.924 269.031 L 166.924 275.011 L 157.6 275.011 C 157.15 273.973 156.87 272.785 156.514 271.301 C 156.336 270.542 156.148 269.785 155.951 269.031 L 155.951 269.031 Z " fill="rgb(200,200,200)"/></g></svg>