<?xml version="1.0" standalone="no"?><!-- Generator: Gravit.io --><svg xmlns="http://www.w3.org/2000/svg" xmlns:xlink="http://www.w3.org/1999/xlink" style="isolation:isolate" viewBox="0 0 300 500" width="300" height="500"><defs><clipPath id="_clipPath_AYqFMkG2s0oh2y2lVwmzgvmF37qrqrr8"><rect width="300" height="500"/></clipPath></defs><g clip-path="url(#_clipPath_AYqFMkG2s0oh2y2lVwmzgvmF37qrqrr8)"><rect x="0.053" y="-1.113" width="299.75" height="178.113" transform="matrix(1,0,0,1,-0.001,0)" fill="rgb(0,130,200)"/><path d="M 48.494 19.408 L 256.935 19.408 C 268.575 19.408 278.025 28.858 278.025 40.498 L 278.025 55.318 C 278.025 66.958 268.575 76.408 256.935 76.408 L 48.494 76.408 C 36.854 76.408 27.404 66.958 27.404 55.318 L 27.404 40.498 C 27.404 28.858 36.854 19.408 48.494 19.408 Z" style="stroke:none;fill:#0070AC;stroke-miterlimit:10;"/><g transform="matrix(1,0,0,1,105.825,34.29)"><text transform="matrix(1,0,0,1,0,21.377)" style="font-family:'Open Sans';font-weight:400;font-size:20px;font-style:normal;font-variant-ligatures:none;fill:#ffffff;stroke:none;">Add Note</text></g><path d="M 48.379 97.019 L 257 97.019 C 268.59 97.019 278 106.428 278 118.019 L 278 133.019 C 278 144.609 268.59 154.019 257 154.019 L 48.379 154.019 C 36.788 154.019 27.379 144.609 27.379 133.019 L 27.379 118.019 C 27.379 106.428 36.788 97.019 48.379 97.019 Z" style="stroke:none;fill:#0070AC;stroke-miterlimit:10;"/><g transform="matrix(1,0,0,1,138.012,110.469)"><text transform="matrix(1,0,0,1,0,21.377)" style="font-family:'Open Sans';font-weight:400;font-size:20px;font-style:normal;font-variant-ligatures:none;fill:#ffffff;stroke:none;">et</text></g><defs><filter id="gxcgKbfUNoasvILVSRR4RvG7IscrJmAs" x="-200%" y="-200%" width="400%" height="400%" filterUnits="objectBoundingBox" color-interpolation-filters="sRGB"><feGaussianBlur xmlns="http://www.w3.org/2000/svg" in="SourceGraphic" stdDeviation="8.587218125678056"/><feOffset xmlns="http://www.w3.org/2000/svg" dx="1" dy="1" result="pf_100_offsetBlur"/><feFlood xmlns="http://www.w3.org/2000/svg" flood-color="#000000" flood-opacity="0.65"/><feComposite xmlns="http://www.w3.org/2000/svg" in2="pf_100_offsetBlur" operator="in" result="pf_100_dropShadow"/><feBlend xmlns="http://www.w3.org/2000/svg" in="SourceGraphic" in2="pf_100_dropShadow" mode="normal"/></filter></defs><g filter="url(#gxcgKbfUNoasvILVSRR4RvG7IscrJmAs)"><path d="M 20.922 186 L 280.728 186 C 286.949 186 292 191.051 292 197.272 L 292 334.728 C 292 340.949 286.949 346 280.728 346 L 20.922 346 C 14.701 346 9.65 340.949 9.65 334.728 L 9.65 197.272 C 9.65 191.051 14.701 186 20.922 186 Z" style="stroke:none;fill:#FFFFFF;stroke-miterlimit:10;"/></g><path d="M 20.789 186 L 280.861 186 C 287.009 186 292 190.991 292 197.139 L 292 238 L 9.65 238 L 9.65 197.139 C 9.65 190.991 14.641 186 20.789 186 Z" style="stroke:none;fill:#37D67A;stroke-miterlimit:10;"/><defs><filter id="5qBFW9fzfHCgx1emQ9WweapQEB5qQ5IE" x="-200%" y="-200%" width="400%" height="400%" filterUnits="objectBoundingBox" color-interpolation-filters="sRGB"><feGaussianBlur xmlns="http://www.w3.org/2000/svg" in="SourceGraphic" stdDeviation="8.587218125678056"/><feOffset xmlns="http://www.w3.org/2000/svg" dx="1" dy="1" result="pf_100_offsetBlur"/><feFlood xmlns="http://www.w3.org/2000/svg" flood-color="#000000" flood-opacity="0.65"/><feComposite xmlns="http://www.w3.org/2000/svg" in2="pf_100_offsetBlur" operator="in" result="pf_100_dropShadow"/><feBlend xmlns="http://www.w3.org/2000/svg" in="SourceGraphic" in2="pf_100_dropShadow" mode="normal"/></filter></defs><g filter="url(#5qBFW9fzfHCgx1emQ9WweapQEB5qQ5IE)"><path d="M 22.786 366 L 282.592 366 C 288.814 366 293.864 371.051 293.864 377.272 L 293.864 514.728 C 293.864 520.949 288.814 526 282.592 526 L 22.786 526 C 16.565 526 11.514 520.949 11.514 514.728 L 11.514 377.272 C 11.514 371.051 16.565 366 22.786 366 Z" style="stroke:none;fill:#FFFFFF;stroke-miterlimit:10;"/></g><path d="M 22.702 366 L 282.726 366 C 288.874 366 293.864 370.991 293.864 377.138 L 293.864 418 L 11.564 418 L 11.564 377.138 C 11.564 370.991 16.555 366 22.702 366 Z" style="stroke:none;fill:#F47373;stroke-miterlimit:10;"/><g transform="matrix(1,0,0,1,19,199)"><text transform="matrix(1,0,0,1,0,21.377)" style="font-family:'Open Sans';font-weight:400;font-size:20px;font-style:normal;fill:#ffffff;stroke:none;">Geospacial Soci</text><text transform="matrix(1,0,0,1,144.375,21.377)" style="font-family:'Open Sans';font-weight:700;font-size:20px;font-style:normal;fill:#ffffff;stroke:none;">et</text><text transform="matrix(1,0,0,1,164.873,21.377)" style="font-family:'Open Sans';font-weight:400;font-size:20px;font-style:normal;fill:#ffffff;stroke:none;">y</text></g><g transform="matrix(1,0,0,1,19,250)"><text transform="matrix(1,0,0,1,0,21.377)" style="font-family:'Open Sans';font-weight:400;font-size:20px;font-style:normal;fill:#000000;stroke:none;">For our me</text><text transform="matrix(1,0,0,1,103.301,21.377)" style="font-family:'Open Sans';font-weight:700;font-size:20px;font-style:normal;fill:#000000;stroke:none;">et</text><text transform="matrix(1,0,0,1,123.799,21.377)" style="font-family:'Open Sans';font-weight:400;font-size:20px;font-style:normal;fill:#000000;stroke:none;">ing, we need </text><text transform="matrix(1,0,0,1,0,48.613)" style="font-family:'Open Sans';font-weight:400;font-size:20px;font-style:normal;fill:#000000;stroke:none;">to dicuss possible career </text><text transform="matrix(1,0,0,1,0,75.85)" style="font-family:'Open Sans';font-weight:400;font-size:20px;font-style:normal;fill:#000000;stroke:none;">options.</text></g><g transform="matrix(1,0,0,1,19,380)"><text transform="matrix(1,0,0,1,0,21.377)" style="font-family:'Open Sans';font-weight:400;font-size:20px;font-style:normal;fill:#000000;stroke:none;">Smart Water Bottle</text></g><g transform="matrix(1,0,0,1,19,428)"><text transform="matrix(1,0,0,1,0,21.377)" style="font-family:'Open Sans';font-weight:400;font-size:20px;font-style:normal;fill:#000000;stroke:none;">D</text><text transform="matrix(1,0,0,1,14.58,21.377)" style="font-family:'Open Sans';font-weight:700;font-size:20px;font-style:normal;fill:#000000;stroke:none;">et</text><text transform="matrix(1,0,0,1,35.078,21.377)" style="font-family:'Open Sans';font-weight:400;font-size:20px;font-style:normal;fill:#000000;stroke:none;">ects when water level </text><text transform="matrix(1,0,0,1,0,48.613)" style="font-family:'Open Sans';font-weight:400;font-size:20px;font-style:normal;fill:#000000;stroke:none;">has dropped below normal</text></g></g></svg>